# xmcd
#
# Track frame offsets: 
#        150
#        11891
#        23614
#        34061
#        45461
#        56840
#        68293
#        81021
#        93268
#        103053
#        113696
#        122965
#        135006
#        145780
#        155319
#        165922
#        178839
#        188365
#        199134
#        209029
#        220284
#        232393
#        244375
#        254889
#        267373
#        279340
#        288763
#        301291
#
# Disc length: 4141 seconds
#
# Revision: 0
# Processed by: cddbd v1.5.2PL0 Copyright (c) Steve Scherf et al.
# Submitted via: ExactAudioCopy v1.0b3
#
DISCID=8e102b1c
DTITLE=The Five Keys - Dream On: The Very Best of the Five Keys
DYEAR=1900
DGENRE=R&B
TTITLE0=How Can I Forget You
TTITLE1=I Took Your Love for a Toy
TTITLE2=Ziggus
TTITLE3=Gonna Be Too Late
TTITLE4=You Broke the Only Heart
TTITLE5=Dream On
TTITLE6=I Burned Your Letter
TTITLE7=Dancing Senorita
TTITLE8=Rosetta
TTITLE9=When Pa Was Courting Ma
TTITLE10=I've Always Been a Dreamer
TTITLE11=Your Teeth and Your Tongue
TTITLE12=Just To Be With You
TTITLE13=You Were Mine
TTITLE14=The Measure of My Love
TTITLE15=My Mother's Prayer
TTITLE16=Stop Your Crying
TTITLE17=I'll Never Stop Loving You
TTITLE18=Valley of Love
TTITLE19=Now I Know I Love You
TTITLE20=I Can't Escape from You
TTITLE21=No Says My Heart
TTITLE22=That's What You're Doing To Me
TTITLE23=Bimbo
TTITLE24=Do Somthing For Me
TTITLE25=Wrapped Up In a Dream
TTITLE26=With You
TTITLE27=Girl You Better Stop It
EXTD=
EXTT0=
EXTT1=
EXTT2=
EXTT3=
EXTT4=
EXTT5=
EXTT6=
EXTT7=
EXTT8=
EXTT9=
EXTT10=
EXTT11=
EXTT12=
EXTT13=
EXTT14=
EXTT15=
EXTT16=
EXTT17=
EXTT18=
EXTT19=
EXTT20=
EXTT21=
EXTT22=
EXTT23=
EXTT24=
EXTT25=
EXTT26=
EXTT27=
PLAYORDER=
